<svg viewBox="0 0 200 200" xmlns="http://www.w3.org/2000/svg">
    <path fill="#FF0066" d="M32.1,-50.2C44.5,-41.9,59.7,-38,63.1,-29.2C66.6,-20.4,58.4,-6.6,52.4,4.8C46.5,16.1,42.8,25,36.3,30C29.7,35,20.3,36.1,11.1,39.7C1.8,43.3,-7.3,49.5,-14.9,48.4C-22.5,47.2,-28.7,38.7,-32.3,30.3C-35.8,22,-36.7,13.7,-38.5,5.1C-40.4,-3.4,-43.2,-12.2,-45.6,-26.5C-47.9,-40.9,-49.9,-60.7,-42.2,-71.1C-34.5,-81.6,-17.3,-82.6,-3.7,-76.8C9.8,-71,19.6,-58.4,32.1,-50.2Z" transform="translate(100 100)" />
    <image class="home__blob-img" xlink:href="assets/img/anh.png"/>
</svg>